PathFileType	4	(X/Y/Z)	markers_0_video_left_upright_43fa9c767a284c608474a81e5a60fe99.trc
DataRate	CameraRate	NumFrames	NumMarkers	Units	OrigDataRate	OrigDataStartFrame	OrigNumFrames
12.500000	12.500000	5	42	mm	12.500000	1885	3015
Frame#	Time	Nose			LEye			REye			LEar			REar			LShoulder			RShoulder			LElbow			RElbow			LHip			RHip			LKnee			RKnee			LAnkle			RAnkle			LBigToe			LSmallToe			LHeel			RBigToe			RSmallToe			RHeel			RIndex			RPinky			RWrist			LIndex			LPinky			LWrist			LOlecranon			ROlecranon			LCubitalFossa			RCubitalFossa			LAcromion			RAcromion			Neck			PelvisCenter			Thorax			c_spine0			c_spine1			c_spine2			c_spine3			c_neck			c_head
		X1	Y1	Z1	X2	Y2	Z2	X3	Y3	Z3	X4	Y4	Z4	X5	Y5	Z5	X6	Y6	Z6	X7	Y7	Z7	X8	Y8	Z8	X9	Y9	Z9	X10	Y10	Z10	X11	Y11	Z11	X12	Y12	Z12	X13	Y13	Z13	X14	Y14	Z14	X15	Y15	Z15	X16	Y16	Z16	X17	Y17	Z17	X18	Y18	Z18	X19	Y19	Z19	X20	Y20	Z20	X21	Y21	Z21	X22	Y22	Z22	X23	Y23	Z23	X24	Y24	Z24	X25	Y25	Z25	X26	Y26	Z26	X27	Y27	Z27	X28	Y28	Z28	X29	Y29	Z29	X30	Y30	Z30	X31	Y31	Z31	X32	Y32	Z32	X33	Y33	Z33	X34	Y34	Z34	X35	Y35	Z35	X36	Y36	Z36	X37	Y37	Z37	X38	Y38	Z38	X39	Y39	Z39	X40	Y40	Z40	X41	Y41	Z41	X42	Y42	Z42

1885	150.720000	11256.406212	1609.708430	-1875.583170	11223.221586	1681.173284	-1884.647415	11181.445272	1614.206068	-1850.619048	11165.081076	1734.702464	-2007.999943	11064.361142	1571.531646	-1927.319937	11234.533277	1641.321805	-2303.697090	11102.466262	1338.807504	-1989.639532	11576.383998	1580.195688	-2406.390916	11319.997017	1057.911896	-1922.743073	11666.323384	1105.595859	-2448.968572	11598.582896	974.672767	-2318.254231	12189.485255	937.296808	-2401.409927	12093.939811	737.845444	-2264.901891	12642.322337	709.980215	-2428.100670	12512.967632	457.237507	-2311.032801	12764.603886	833.142471	-2228.870313	12785.474021	852.836622	-2332.299149	12689.973205	657.225609	-2460.115747	12637.849656	550.818156	-2099.759890	12600.928247	450.381994	-2103.777592	12556.525827	403.884772	-2348.860721	11762.355206	1237.157144	-1989.655035	11764.551767	1159.106137	-1977.131476	11628.449151	1137.668569	-1924.234448	11879.834870	1478.199778	-2013.257618	11900.460894	1469.893925	-2089.038092	11789.259200	1538.105680	-2167.754009	11607.706014	1573.899129	-2442.683156	11325.944394	1009.665663	-1915.866640	11562.736250	1574.660066	-2358.976736	11333.414852	1101.230112	-1936.374428	11222.260229	1685.574570	-2262.758314	11089.162244	1380.778834	-1952.912246	11162.888508	1530.516504	-2106.680967	11632.453140	1040.134313	-2383.611401	11155.711237	1533.176702	-2107.835280	11566.084215	1040.760187	-2417.368655	11451.871072	1133.949516	-2375.639243	11328.141184	1221.578261	-2342.648144	11187.418789	1401.320138	-2229.222044	11165.791899	1506.437705	-2135.748886	11154.178332	1602.752916	-2019.477271
1886	150.800000	11203.495714	1602.898521	-1874.120521	11171.049132	1674.596972	-1882.289975	11128.711552	1607.701250	-1849.038434	11113.540656	1729.875890	-2004.734830	11011.468103	1566.911911	-1925.966382	11181.194525	1639.158606	-2301.397197	11048.426518	1334.887492	-1990.415351	11521.134533	1578.692237	-2408.241828	11261.060719	1051.213114	-1925.966400	11615.413979	1105.563597	-2448.306431	11547.549090	973.607391	-2318.378482	12138.486203	936.312179	-2401.511396	12043.743560	737.737885	-2265.701647	12590.690388	707.314273	-2430.880494	12463.429487	458.191821	-2314.015295	12712.428783	827.873622	-2229.774326	12733.611806	848.879240	-2332.910531	12638.371671	654.859498	-2463.455156	12588.187137	551.482561	-2102.533421	12551.426284	450.965377	-2106.806699	12507.100996	405.015007	-2352.063424	11704.185416	1225.590940	-1990.813293	11705.458156	1147.184069	-1979.259335	11569.366171	1126.334678	-1926.427632	11824.573620	1475.389115	-2017.549117	11845.103530	1466.997959	-2093.364674	11734.064579	1535.597333	-2171.600580	11552.115906	1572.576271	-2444.623976	11266.221673	1003.004540	-1919.606020	11507.810680	1572.945653	-2360.821656	11275.104532	1094.327379	-1939.125671	11168.836004	1683.052017	-2260.215775	11035.019385	1376.600627	-1953.502174	11110.070638	1527.071437	-2105.333813	11581.481535	1039.585494	-2383.342457	11101.927694	1529.826322	-2106.858974	11515.253600	1040.253204	-2417.273201	11400.851474	1133.044351	-2375.319051	11276.845379	1220.199531	-2342.297048	11135.169496	1398.874498	-2228.544346	11112.969196	1503.296429	-2134.501520	11101.374972	1598.396449	-2017.830752
1887	150.880000	11172.126671	1602.840934	-1871.421514	11140.472499	1674.972249	-1878.804701	11097.399189	1608.189753	-1846.583136	11083.920922	1732.399864	-2000.785884	10980.035207	1569.683639	-1924.486970	11148.987013	1644.704351	-2297.448072	11015.118409	1338.967071	-1991.685125	11487.199656	1587.053134	-2408.853482	11221.511121	1050.379966	-1928.258637	11584.803661	1110.728498	-2447.539683	11516.333327	978.464811	-2318.843078	12108.559558	937.669191	-2401.625898	12012.627921	739.502460	-2264.416546	12560.296310	704.777976	-2433.235666	12431.991404	456.752109	-2313.750933	12682.761671	823.492677	-2231.626695	12703.967500	844.959006	-2334.589210	12607.712295	652.148604	-2466.084514	12558.195757	548.116484	-2102.375998	12520.734185	447.962504	-2106.999227	12475.264801	403.411477	-2352.111059	11668.915603	1215.983254	-1986.340536	11668.703761	1137.140342	-1976.502270	11532.225274	1117.306944	-1925.164202	11793.234107	1479.942153	-2020.132276	11813.307043	1471.840385	-2096.495106	11702.134029	1541.665188	-2173.833814	11517.778187	1581.422643	-2445.483022	11225.511317	1001.913472	-1922.407862	11474.410801	1580.728979	-2361.366577	11236.675512	1093.285803	-1940.771008	11136.758238	1688.256378	-2255.929268	11001.761597	1380.371192	-1954.336892	11078.652234	1531.218758	-2103.417139	11550.568494	1044.596655	-2383.191380	11069.259917	1534.313785	-2105.133080	11484.473567	1045.586656	-2417.325802	11370.096521	1138.569358	-2375.188080	11246.049327	1225.877923	-2342.034949	11103.934899	1404.107569	-2227.544359	11081.415586	1507.878493	-2132.652379	11070.362252	1601.239445	-2015.711482
1888	150.960000	11117.720900	1595.775357	-1870.125948	11086.784520	1668.125643	-1876.597145	11043.190529	1601.398246	-1845.097107	11030.738017	1727.258805	-1997.614517	10925.598531	1564.714532	-1923.095902	11093.960175	1642.199515	-2295.273911	10959.493444	1334.677218	-1992.399325	11430.257582	1585.136067	-2411.104610	11161.124808	1043.418082	-1931.362405	11532.356131	1110.369840	-2446.935131	11463.806987	977.033676	-2318.916274	12056.018608	936.495643	-2401.830267	11961.103233	739.375517	-2265.298464	12507.104149	702.104544	-2436.086918	12381.237319	457.993657	-2316.688248	12628.988052	818.340696	-2232.662210	12650.481439	841.099549	-2335.334110	12554.570164	649.792358	-2469.483001	12507.261596	549.363343	-2105.177254	12470.041465	449.083853	-2109.960147	12424.656409	404.829432	-2355.213788	11609.043786	1204.829781	-1987.635293	11607.970372	1125.624622	-1978.748484	11471.564042	1106.198847	-1927.312078	11736.348804	1476.984351	-2024.882804	11756.260888	1468.721596	-2101.309110	11645.265571	1538.919678	-2178.148129	11460.483776	1579.668423	-2447.826295	11164.377266	995.001811	-1926.016189	11417.803259	1578.627752	-2363.599061	11176.877530	1086.145986	-1943.417600	11081.647315	1685.394234	-2253.533008	10946.032325	1375.843833	-1954.874343	11024.198385	1527.437915	-2102.101353	11498.081559	1043.701758	-2382.925702	11013.839820	1530.619033	-2104.203675	11432.106288	1044.708119	-2417.221656	11317.518453	1137.290120	-2374.858263	11193.165693	1224.112481	-2341.671461	11050.054675	1401.291275	-2226.873344	11026.954708	1504.397481	-2131.428042	11015.929502	1596.559079	-2014.121347
1889	151.040000	11014.394206	1595.895285	-1866.414450	10984.266039	1668.689622	-1872.114041	10939.900734	1602.089467	-1841.697960	10929.298373	1730.010677	-1992.719256	10822.259961	1567.744713	-1920.799392	10989.980340	1648.015559	-2290.349851	10854.328467	1339.046145	-1992.877354	11324.549436	1593.843981	-2410.469505	11049.599308	1042.791239	-1932.928674	11429.848803	1115.819069	-2445.269349	11360.659378	982.212555	-2318.583502	11954.198271	938.023300	-2400.999536	11857.905724	741.153903	-2263.098300	12404.836253	699.571357	-2437.534949	12277.617365	456.295809	-2315.643775	12527.481256	813.840813	-2233.549452	12549.021543	837.081794	-2336.045478	12452.019411	647.069835	-2471.220158	12405.135320	545.459302	-2104.174405	12367.142830	445.585295	-2109.399002	12320.609756	402.970347	-2354.535106	11502.030260	1194.782379	-1982.192252	11499.413785	1115.149532	-1975.039055	11362.558612	1096.912167	-1925.257863	11633.129342	1481.600491	-2026.160236	11652.658251	1473.709750	-2103.098830	11541.517778	1545.148348	-2179.065846	11354.385867	1588.881401	-2447.434878	11051.655544	994.106288	-1928.104481	11312.616932	1586.729101	-2362.910821	11066.506470	1085.285096	-1944.322080	10977.792957	1690.864401	-2248.249775	10840.916821	1379.881435	-1954.909122	10920.964797	1531.840211	-2099.302932	11395.254090	1049.015812	-2381.926426	10909.354889	1535.372918	-2101.579449	11329.433315	1050.365577	-2416.436058	11214.888763	1143.134009	-2373.889379	11090.520450	1230.113558	-2340.573184	10947.005548	1406.818724	-2225.016192	10923.589033	1509.239594	-2128.705707	10913.092232	1599.641839	-2011.094669
